PathFileType	4	(X/Y/Z)	D:\TRACE\spot_10-12-23\spot_arm_body_motion_1_7-platform.trc
DataRate	CameraRate	NumFrames	NumMarkers	Units	OrigDataRate	OrigDataStartFrame	OrigNumFrames
100.00	100.00	      36	5	mm	100.00	4376	      7000
Frame#	Time	Left_Front			Right_Front			Left_Aft			Right_Aft			Post			
		X1	Y1	Z1	X2	Y2	Z2	X3	Y3	Z3	X4	Y4	Z4	X5	Y5	Z5	

4376	43.750	-808.35352	-3.39507	-655.52576	758.90735	-5.48997	-630.72839	-739.79022	22.34864	482.79977	666.89838	22.22830	585.03156	-20.56957	717.14233	-982.28186	
4377	43.760	-807.55499	-3.89015	-655.65405	759.71124	-5.83879	-630.80225	-739.01062	22.71237	482.72626	667.72302	22.58860	584.83466	-20.50675	716.50946	-982.69525	
4378	43.770	-806.87762	-4.16837	-655.72290	760.48712	-6.25610	-630.99493	-738.19989	22.99621	482.63748	668.58954	22.98507	584.70160	-20.23643	716.13458	-983.73450	
4379	43.780	-806.06433	-4.59072	-655.86194	761.37610	-6.70085	-631.01819	-737.32086	23.28224	482.61212	669.39264	23.21299	584.74585	-18.16395	715.31885	-983.80530	
4380	43.790	-805.10486	-5.27247	-655.70599	762.20313	-7.10201	-631.06549	-736.61945	23.48309	482.48843	670.29736	23.59160	584.71783	-16.89350	714.50598	-984.21075	
4381	43.800	-804.42151	-5.43674	-655.89716	763.01447	-7.39811	-631.22748	-735.56989	23.72552	482.37445	671.03394	23.84045	584.54071	-16.35367	713.92255	-984.83929	
4382	43.810	-803.39874	-5.90380	-656.01959	763.91711	-7.75566	-631.21008	-734.99023	23.90126	482.33737	671.91895	24.11469	584.43384	-15.59950	713.51111	-985.26514	
4383	43.820	-802.74432	-6.24218	-656.07819	764.84796	-8.15357	-631.34686	-733.93585	24.17601	482.19785	672.79950	24.30490	584.50342	-14.53691	712.93341	-985.93445	
4384	43.830	-801.65540	-6.74275	-656.03723	765.64709	-8.47477	-631.34692	-733.05243	24.36940	482.11517	673.75433	24.61389	584.43274	-13.74324	712.41626	-986.37054	
4385	43.840	-800.92603	-6.94748	-656.04303	766.40875	-8.80039	-631.46582	-732.41980	24.62198	481.99243	674.54932	24.93729	584.35126	-12.62992	711.89777	-986.88776	
4386	43.850	-800.26642	-7.07434	-656.16656	767.40442	-9.08141	-631.50616	-731.48114	24.83267	481.94119	675.29523	25.18433	584.28424	-11.99084	711.57349	-987.29102	
4387	43.860	-799.22614	-7.30967	-656.35193	768.25555	-9.37518	-631.47278	-730.53638	25.13985	481.81918	676.24628	25.43224	584.14453	-11.15834	711.05139	-987.75549	
4388	43.870	-798.11237	-7.87855	-656.39313	769.09967	-9.86090	-631.57355	-729.67889	25.28896	481.73160	677.23315	25.73257	584.10138	-10.18396	710.48865	-988.15845	
4389	43.880	-797.30695	-8.26918	-656.30865	770.01025	-10.09272	-631.63251	-728.66101	25.52933	481.58713	678.12268	26.05646	584.02307	-9.35647	710.08630	-988.36603	
4390	43.890	-796.35413	-8.57608	-656.57935	771.01166	-10.37723	-631.64471	-727.81055	25.80153	481.62238	678.86597	26.20426	583.90405	-8.52836	709.55487	-988.64087	
4391	43.900	-795.14270	-9.06050	-657.01453	771.79205	-10.80174	-631.71417	-726.98743	25.95236	481.54071	679.87341	26.48464	583.84155	-7.41319	708.92920	-988.99988	
4392	43.910	-794.49072	-8.98095	-656.63672	772.72723	-11.09310	-631.81134	-725.89526	26.12653	481.54486	680.84277	26.86560	583.76367	-6.36441	708.34229	-989.04248	
4393	43.920	-793.67310	-9.08440	-656.65906	773.70105	-11.29678	-631.86139	-725.19208	26.35320	481.35986	681.58490	27.02126	583.64386	-5.49536	707.87427	-989.27771	
4394	43.930	-792.55499	-10.07137	-657.00519	774.53040	-11.93105	-631.94800	-724.18579	26.72476	481.29276	682.51892	27.39098	583.47192	-4.70729	707.42773	-989.75317	
4395	43.940	-791.86011	-10.73656	-657.03314	775.46545	-12.39741	-631.99054	-723.30725	26.84017	481.20779	683.53998	27.70235	583.40918	-3.87431	706.86157	-990.32184	
4396	43.950	-790.72205	-10.96744	-656.98792	776.40723	-12.56557	-632.01428	-722.42810	26.98049	481.17014	684.49597	28.05919	583.46332	-2.94058	706.21960	-990.85602	
4397	43.960	-789.64362	-10.98480	-657.08105	777.31714	-12.76029	-632.17365	-721.32288	27.16823	481.20248	685.33429	28.06073	583.22150	-2.03021	705.97076	-991.38245	
4398	43.970	-788.66492	-11.01013	-657.12000	778.32562	-12.97937	-632.19763	-720.48724	27.34687	481.25162	686.37238	28.23940	583.20367	-1.07457	705.73749	-992.06110	
4399	43.980	-787.89716	-11.17039	-657.19116	779.36090	-13.06629	-632.07404	-719.50848	27.52363	481.16983	687.45825	28.43836	583.27509	-0.22726	705.56177	-992.56451	
4400	43.990	-786.58856	-11.78194	-657.42023	780.31250	-13.27517	-632.22754	-718.45245	27.66958	481.07462	688.22174	28.56615	583.31287	0.91162	705.10950	-993.01801	
4401	44.000	-785.90344	-11.97201	-657.28583	781.22272	-13.40326	-632.33008	-717.61761	27.74705	481.04413	689.25885	28.72207	583.20898	2.03578	704.63013	-993.29657	
4402	44.010	-785.03632	-12.13355	-657.50415	782.09625	-13.71091	-632.33466	-716.58752	27.81024	480.96878	689.91516	28.55131	583.27496	2.87473	704.38818	-993.32623	
4403	44.020	-783.90796	-12.20447	-657.31555	783.15070	-14.12248	-632.39825	-715.64008	27.98507	481.04568	690.90186	28.94601	583.17139	3.88175	704.09595	-993.53223	
4404	44.030	-782.96320	-12.30995	-657.21332	784.04706	-14.18427	-632.28082	-715.04138	28.03812	481.11868	691.67676	29.10608	582.68542	4.66987	703.81458	-993.82892	
4405	44.040	-782.10901	-12.53013	-657.36798	785.02832	-14.30173	-632.32367	-713.58850	28.37925	480.82462	693.10675	29.39137	582.88666	5.51995	703.38080	-993.76733	
4406	44.050	-781.18365	-12.97240	-657.43671	785.99023	-14.57188	-632.41681	-712.95496	28.40740	480.65088	694.16229	29.62052	582.85071	6.61708	702.98199	-993.76489	
4407	44.060	-779.64807	-13.55013	-658.04486	786.90009	-15.05881	-632.46802	-711.81110	28.56608	480.62405	695.06305	29.68811	582.73090	8.60874	702.02588	-994.34845	
4408	44.070	-778.99274	-13.51292	-657.64777	787.82208	-15.25957	-632.54022	-710.96112	28.72490	480.64191	696.35596	29.87113	582.60309	8.54919	702.24939	-993.95593	
4409	44.080	-778.10632	-13.61871	-657.78003	788.92505	-15.37393	-632.49725	-709.88623	28.87200	480.55252	697.17853	30.20868	582.61340	9.49992	702.15521	-994.05707	
4410	44.090	-777.49213	-13.45525	-657.31409	789.86188	-15.35099	-632.48328	-708.88696	29.06874	480.52670	698.09930	30.43663	582.48657	10.49337	701.88440	-994.21741	
4411	44.100	-776.67645	-13.59111	-657.21216	790.90204	-15.57809	-632.58533	-707.89227	29.14925	480.55371	699.09772	30.45562	582.37946	11.60824	701.67792	-994.62189	
